
nColumns=19
nRows=31
DataType=double
version=3
OpenSimVersion=4.4-2022-10-11-798caa840
endheader
time	ground_force_calcn_r_vx	ground_force_calcn_r_vy	ground_force_calcn_r_vz	ground_force_calcn_r_px	ground_force_calcn_r_py	ground_force_calcn_r_pz	ground_force_calcn_r_mx	ground_force_calcn_r_my	ground_force_calcn_r_mz	ground_force_calcn_l_vx	ground_force_calcn_l_vy	ground_force_calcn_l_vz	ground_force_calcn_l_px	ground_force_calcn_l_py	ground_force_calcn_l_pz	ground_force_calcn_l_mx	ground_force_calcn_l_my	ground_force_calcn_l_mz
1.3	-204.787	311.72	-36.5474	-0.132785	0	-0.441933	-0.966658	1.47141	-0.172515	-190.729	265.481	23.0042	-0.133266	0	-0.76889	0.457709	-0.637099	-0.0552051
1.31	-466.848	735.866	-81.953	-0.138242	0	-0.445405	-2.88202	4.54277	-0.505926	-422.996	633.627	61.1921	-0.148875	0	-0.766915	0.885067	-1.32579	-0.128037
1.32	-386.039	888.641	-112.181	-0.151717	0	-0.444309	-3.35319	7.71888	-0.974421	-324.979	764.947	86.76349999999999	-0.167284	0	-0.767023	1.01017	-2.37777	-0.269697
1.33	-314.219	1303.78	-163.309	-0.195813	0	-0.448626	-2.07626	8.614979999999999	-1.07909	-214.958	911.471	105.854	-0.186157	0	-0.766628	0.780273	-3.30854	-0.384237
1.34	-201.139	2101.22	-134.687	-0.243969	0	-0.462102	-0.0263006	0.274752	-0.0176114	-218.101	1089.12	129.528	-0.206074	0	-0.762026	-0.008922329999999999	0.0445551	0.00529887
1.35	-207.654	2210.09	-23.921	-0.254438	0	-0.470786	0.7099	-7.55557	0.081778	-221.053	1216.16	107.326	-0.226617	0	-0.752877	-1.09458	6.02205	0.5314449999999999
1.36	-413.688	1603.94	-52.7938	-0.237027	0	-0.469575	1.6468	-6.38491	0.21016	-209.954	1135.26	68.24460000000001	-0.234979	0	-0.74618	-1.58634	8.57765	0.515633
1.37	-452.548	1205.93	-87.5686	-0.223598	0	-0.468282	0.364997	-0.9726320000000001	0.07062740000000001	-248.05	868.712	70.18640000000001	-0.224373	0	-0.746959	-1.82223	6.38174	0.515604
1.38	-318.374	1163.94	-78.86660000000001	-0.237467	0	-0.472831	-0.819943	2.99761	-0.203113	-262.346	658.221	78.4314	-0.210843	0	-0.74888	-1.19084	2.98779	0.356015
1.39	-216.024	1179.43	-58.2692	-0.251668	0	-0.477419	-0.8711410000000001	4.75617	-0.234977	-212.716	596.609	71.0463	-0.218979	0	-0.744492	-0.445768	1.25026	0.148885
1.4	-201.196	1146.06	-34.6276	-0.257073	0	-0.481154	-0.943621	5.37511	-0.162406	-148.285	627.876	51.0723	-0.240282	0	-0.7364309999999999	-0.277854	1.17651	0.0956988
1.41	-174.322	1113.22	-19.47	-0.262316	0	-0.483739	-0.959585	6.1279	-0.107176	-107.159	650.202	30.5557	-0.255625	0	-0.729766	-0.295857	1.79516	0.0843618
1.42	-123.496	1087.52	-20.9626	-0.26913	0	-0.484728	-0.769559	6.77681	-0.130628	-92.98090000000001	627.963	21.1065	-0.263064	0	-0.725801	-0.31577	2.13261	0.0716793
1.43	-92.05249999999999	1032.84	-25.2923	-0.273478	0	-0.484941	-0.611853	6.86506	-0.168113	-83.2766	570.678	20.7101	-0.26684	0	-0.723724	-0.273121	1.87164	0.0679227
1.44	-90.88200000000001	957.878	-24.24	-0.274316	0	-0.485205	-0.612793	6.45871	-0.163443	-67.0829	503.845	21.5419	-0.270149	0	-0.722288	-0.181735	1.36498	0.0583596
1.45	-93.68040000000001	890.8150000000001	-23.9068	-0.27388	0	-0.485018	-0.608069	5.78218	-0.155177	-51.1646	446.487	19.4983	-0.272856	0	-0.721051	-0.1181	1.03059	0.0450066
1.46	-86.16540000000001	847.95	-29.6027	-0.273639	0	-0.483895	-0.514592	5.06408	-0.176792	-43.1015	410.371	16.4202	-0.273987	0	-0.720402	-0.109761	1.04504	0.0418154
1.47	-74.4226	827.797	-38.1893	-0.273229	0	-0.482275	-0.390413	4.34253	-0.200337	-41.2501	399.463	16.5849	-0.273575	0	-0.721199	-0.137443	1.33099	0.05526
1.48	-66.8536	816.215	-43.1809	-0.271723	0	-0.480716	-0.297397	3.63091	-0.192089	-40.9455	399.846	20.167	-0.271646	0	-0.723093	-0.177011	1.72857	0.08718380000000001
1.49	-64.7533	803.349	-45.0071	-0.269127	0	-0.479371	-0.240127	2.97909	-0.166902	-41.1237	397.432	24.7429	-0.26843	0	-0.725186	-0.214413	2.07215	0.129006
1.5	-64.8527	785.224	-45.5689	-0.266481	0	-0.478384	-0.207324	2.51024	-0.145677	-42.5138	389.745	29.4196	-0.264336	0	-0.727414	-0.249346	2.28588	0.172548
1.51	-62.423	761.1799999999999	-44.5232	-0.264722	0	-0.477669	-0.188344	2.29665	-0.134336	-44.208	377.137	32.719	-0.260117	0	-0.729304	-0.286053	2.4403	0.211712
1.52	-56.8645	731.081	-42.45	-0.263145	0	-0.476957	-0.186743	2.40087	-0.139406	-44.772	360.907	33.0368	-0.256157	0	-0.730678	-0.320473	2.58333	0.236474
1.53	-52.0606	690.367	-40.0535	-0.26054	0	-0.47625	-0.210813	2.79556	-0.162192	-44.4606	343.706	30.4771	-0.252557	0	-0.731631	-0.345153	2.66823	0.236598
1.54	-47.5823	643.242	-36.8843	-0.257077	0	-0.475811	-0.248995	3.36604	-0.193013	-43.3499	324.26	26.5851	-0.249645	0	-0.732612	-0.360525	2.69675	0.221098
1.55	-42.336	597.1609999999999	-32.8523	-0.253631	0	-0.475661	-0.282549	3.98543	-0.219255	-40.0572	303.683	22.6974	-0.248068	0	-0.733059	-0.341262	2.58719	0.193368
1.56	-37.2933	556.496	-28.5088	-0.251481	0	-0.475736	-0.301107	4.49317	-0.230181	-35.5848	285.272	19.9702	-0.247254	0	-0.732856	-0.286919	2.30014	0.161019
1.57	-31.2746	521.357	-23.7975	-0.25085	0	-0.476021	-0.287137	4.78666	-0.218489	-32.1345	271.465	18.3361	-0.247054	0	-0.732602	-0.233886	1.97582	0.133457
1.58	-24.8634	483.653	-19.0518	-0.25113	0	-0.476516	-0.251746	4.89706	-0.192902	-30.1825	264.649	16.924	-0.24783	0	-0.732421	-0.19784	1.73471	0.110933
1.59	-18.4167	441.866	-14.7008	-0.252261	0	-0.47693	-0.201584	4.83653	-0.16091	-28.6329	263.433	15.2988	-0.249496	0	-0.731909	-0.165504	1.52269	0.08842990000000001
1.6	-9.940110000000001	399.765	-10.5257	-0.253934	0	-0.477041	-0.116016	4.66586	-0.12285	-26.2615	261.09	14.0127	-0.251247	0	-0.731147	-0.136427	1.35634	0.07279480000000001
